# xmcd
#
# Track frame offsets: 
#        150
#        17619
#        32723
#        46254
#        59721
#        75190
#        90965
#        108988
#        124016
#        140845
#        154838
#
# Disc length: 2246 seconds
#
# Revision: 0
# Processed by: cddbd v1.4PL0 Copyright (c) Steve Scherf et al.
# Submitted via: ExactAudioCopy v0.90b4
#
DISCID=8308c40b
DTITLE=O. C. Smith - Hickory Holler Revisited
DYEAR=1900
DGENRE=
TTITLE0=The Son of Hickory Hollers Tramp
TTITLE1=Sitting on the Dock of the Bay
TTITLE2=Main Street Mission
TTITLE3=By the Time I get to Phoenix
TTITLE4=Long Black Limousine
TTITLE5=The House Next Door
TTITLE6=Little Green Apples
TTITLE7=Take Time to Know Her
TTITLE8=Honey (I miss you)
TTITLE9=The Best Man
TTITLE10=Seven Days
EXTD=
EXTT0=The Son of Hickory Hollers Tramp
EXTT1=
EXTT2=
EXTT3=
EXTT4=
EXTT5=
EXTT6=
EXTT7=
EXTT8=
EXTT9=
EXTT10=
PLAYORDER=
